<svg xmlns="http://www.w3.org/2000/svg" version="1.1" xmlns:xlink="http://www.w3.org/1999/xlink" xmlns:svgjs="http://svgjs.dev/svgjs" width="100%" height="100%" viewBox="0 0 1000 600"><rect width="1000" height="600" x="0" y="0" fill="#234e70"/><g><rect width="333.3333333333333" height="333.3333333333333" rx="13.333333333333334" ry="13.333333333333334" y="113.68648150009454" fill="#fbf8be" transform="matrix(1.3666533834676982,0,0,1.3666533834676982,0,-83.14560896776601)" x="91.4642562866211"/><path d="M253.82531821212163 205.35315413061394L253.82531821212163 205.35315413061394Q264.0564666109317 205.35315413061394 269.37097980698024 207.71200223367293Q274.7139128596922 210.07085033673192 278.8063722192162 212.9412558597314L278.8063722192162 212.9412558597314Q281.2504798922653 214.36224869289947 282.78515215208677 215.0727451094835Q284.31982441190826 215.7832415260675 285.74081724507636 215.7832415260675L285.74081724507636 215.7832415260675Q287.78704692483836 215.7832415260675 288.7249021947293 213.538072849662Q289.6343376079568 211.29290417325646 290.2595744545508 206.80256682044538L290.2595744545508 206.80256682044538L294.94885080400536 206.80256682044538Q294.74991180736185 210.26978933337546 294.4372933840649 215.0727451094835Q294.1530948174313 219.87570088559156 294.03941539077783 227.776421038006Q293.9257359641244 235.64872133375707 293.9257359641244 248.52291640225974L293.9257359641244 248.52291640225974L289.2364596146698 248.52291640225974Q288.61122276807583 238.7180658534001 284.9450612585022 229.70897129111455Q281.2504798922653 220.69987672882905 274.20235543975167 214.9874855394934Q267.1258111305747 209.24667449349445 255.6726088952401 209.24667449349445L255.6726088952401 209.24667449349445Q244.8162236498361 209.24667449349445 237.7680991973225 215.7832415260675Q230.71997474480892 222.348228415304 230.71997474480892 232.9772548074011L230.71997474480892 232.9772548074011Q230.71997474480892 242.18528836633016 235.40925109426354 248.43765683226962Q240.1269473003815 254.66160544154576 247.99924759613256 259.6919200709607Q255.87154789188364 264.6938148437123 265.0795814508127 270.43462588971124L265.0795814508127 270.43462588971124Q275.73702769957316 276.97119292228433 284.0072059886113 283.42250038486736Q292.3058041343128 289.87380784745034 297.1087599104208 297.63242871654796Q301.9117156865289 305.419469442309 301.9117156865289 316.4747936843565L301.9117156865289 316.4747936843565Q301.9117156865289 329.57634760616605 295.9719656438864 338.1591443185012Q290.06063545790727 346.74194103083624 280.22736505238424 351.06175924366715Q270.3940946468613 355.35315759983473 258.54301441823964 355.35315759983473L258.54301441823964 355.35315759983473Q247.68662917283558 355.35315759983473 241.34900113690603 352.8806300701223Q235.01137310097647 350.43652239707325 230.49261589150203 347.7650558707173L230.49261589150203 347.7650558707173Q226.00227853869094 344.9230702043812 223.55817086564187 344.9230702043812L223.55817086564187 344.9230702043812Q221.51194118587986 344.9230702043812 220.57408591598895 347.16823888078665Q219.6646505027614 349.4134075571922 219.03941365616743 353.9037449100033L219.03941365616743 353.9037449100033L214.35013730671284 353.9037449100033Q214.74801529999988 349.6123465538357 214.86169472665333 343.7862759378467Q214.9469542966434 337.96020532185764 215.06063372329686 328.553232766285Q215.14589329328695 319.1178403540491 215.14589329328695 304.794232595715L215.14589329328695 304.794232595715L219.86358949940492 304.794232595715Q220.6877653426424 317.0716106742871 224.46760627886943 327.7290569230476Q228.24744721509649 338.3580833151447 236.11974751084756 344.80939077772774Q244.020467663262 351.2606982403107 257.0936017284082 351.2606982403107L257.0936017284082 351.2606982403107Q263.8575276142882 351.2606982403107 269.88253722692076 348.50397214396463Q275.9359666962167 345.71882619095527 279.8294870590972 339.6938165783227Q283.69458756531435 333.66880696569007 283.69458756531435 324.0344755568106L283.69458756531435 324.0344755568106Q283.69458756531435 315.6506178411191 279.7158076324437 309.39824937517955Q275.73702769957316 303.1743007659034 268.5752238204061 297.7461081432014Q261.4134199412391 292.3179155204994 251.77908853235962 286.60552433116385L251.77908853235962 286.60552433116385Q242.17317698014352 280.66577428852133 233.78931926445193 274.5270852492353Q225.377041692097 268.38839620994924 220.3751469193454 260.28873706089126Q215.3732521465938 252.21749776849668 215.3732521465938 240.76429553316206L215.3732521465938 240.76429553316206Q215.3732521465938 228.68585645123355 220.77302491263248 220.81355615548247Q226.20121753533448 212.9412558597314 235.01137310097647 209.132995066841Q243.7931088099551 205.35315413061394 253.82531821212163 205.35315413061394Z " fill="#234e70" transform="matrix(1.3666533834676982,0,0,1.3666533834676982,0,-83.14560896776601)"/><path d="M640.2501305809985 205.35315149220872L640.2501305809985 205.35315149220872L640.2501305809985 209.56039729193654Q633.0919693245172 209.7941331696992 629.4106292497554 211.66402019180043Q625.7292891749936 213.563124198622 624.4729588320193 217.77036999834982Q623.216628489045 221.9776157980776 623.216628489045 229.77855071840625L623.216628489045 229.77855071840625L623.216628489045 355.35315104639295Q621.9602981460707 355.35315104639295 620.7916187572574 355.35315104639295Q619.6229393684441 355.35315104639295 618.3666090254699 355.35315104639295L618.3666090254699 355.35315104639295L530.0144472311861 218.82218144828175L530.0144472311861 329.9051573549838Q530.0144472311861 337.4723563975498 531.3876455130417 341.7964701361589Q532.7608437948973 346.0913668900477 536.8512216557438 347.87360295798794Q540.9708165013105 349.68505601064857 549.1515722230035 350.09409379673315L549.1515722230035 350.09409379673315L549.1515722230035 354.301339596461Q545.3825811940808 353.8923018103763 539.2762313875313 353.775433871495Q533.169881580982 353.65856593261367 527.70630543828 353.65856593261367L527.70630543828 353.65856593261367Q522.4472481886202 353.65856593261367 517.071323000079 353.775433871495Q511.7246147962583 353.8923018103763 508.13092567565747 354.301339596461L508.13092567565747 354.301339596461L508.13092567565747 350.09409379673315Q515.2890869321388 349.68505601064857 518.9704270069006 347.87360295798794Q522.6517670816625 346.0913668900477 523.9080974246367 341.7964701361589Q525.1936447523314 337.4723563975498 525.1936447523314 329.9051573549838L525.1936447523314 329.9051573549838L525.1936447523314 227.67492781854233Q525.1936447523314 219.87399289821371 523.9080974246367 216.19265282345188Q522.6517670816625 212.51131274869005 518.9704270069006 211.13811446683445Q515.2890869321388 209.7941331696992 508.13092567565747 209.56039729193654L508.13092567565747 209.56039729193654L508.13092567565747 205.35315149220872Q511.7246147962583 205.5868873699714 517.071323000079 205.79140626301373Q522.4472481886202 205.99592515605605 527.70630543828 205.99592515605605L527.70630543828 205.99592515605605Q532.3225890240924 205.99592515605605 536.5298348238201 205.79140626301373Q540.7370806235479 205.5868873699714 544.1262508511064 205.35315149220872L544.1262508511064 205.35315149220872L618.3666090254699 319.796080641749L618.3666090254699 229.77855071840625Q618.3666090254699 221.9776157980776 616.9934107436143 217.77036999834982Q615.649429446479 213.563124198622 611.5298346009122 211.66402019180043Q607.4394567400658 209.7941331696992 599.2294840336525 209.56039729193654L599.2294840336525 209.56039729193654L599.2294840336525 205.35315149220872Q603.0276920472957 205.5868873699714 609.221692808006 205.79140626301373Q615.4156935687164 205.99592515605605 620.6747508183761 205.99592515605605L620.6747508183761 205.99592515605605Q626.1675439457986 205.99592515605605 631.5142521496193 205.79140626301373Q636.8901773381604 205.5868873699714 640.2501305809985 205.35315149220872Z " fill="#fbf8be" transform="matrix(1.3666533834676982,0,0,1.3666533834676982,0,-83.14560896776601)"/></g></svg>